<?xml version="1.0" encoding="UTF-8"?>
<svg class="icon" width="20px" height="20px" viewBox="0 0 20 20" version="1.1" xmlns="http://www.w3.org/2000/svg" xmlns:xlink="http://www.w3.org/1999/xlink">
    <!-- Generator: sketchtool 54.1 (76490) - https://sketchapp.com -->
    <title>8FE6B16C-F7D9-4F2F-9638-59CBFE3C2EA3</title>
    <desc>Created with sketchtool.</desc>
    <g id="Icons-Neu-für-FE" stroke="none" stroke-width="1" fill-rule="evenodd">
        <g id="Siedle-Icons_Update" transform="translate(-320.000000, -1155.000000)">
            <g id="icon-edited/siedle_icon_times-circle" transform="translate(320.000000, 1155.000000)">
                <g id="siedle-icons_forms_times-circle" transform="translate(2.800000, 0.000000)">
                    <g id="Group" transform="translate(-2.800000, 0.000000)">
                        <path d="M14.28,5.72 C14.44,5.88 14.44,6.12 14.28,6.28 L10.56,10 L14.28,13.72 C14.44,13.88 14.44,14.12 14.28,14.28 C14.2,14.36 14.08,14.4 14,14.4 C13.92,14.4 13.8,14.36 13.72,14.28 L10,10.56 L6.28,14.28 C6.2,14.36 6.08,14.4 6,14.4 C5.92,14.4 5.8,14.36 5.72,14.28 C5.56,14.12 5.56,13.88 5.72,13.72 L9.44,10 L5.72,6.28 C5.56,6.12 5.56,5.88 5.72,5.72 C5.88,5.56 6.12,5.56 6.28,5.72 L10,9.44 L13.72,5.72 C13.88,5.56 14.12,5.56 14.28,5.72 Z M10,0 C15.52,0 20,4.48 20,10 C20,15.52 15.52,20 10,20 C4.48,20 0,15.52 0,10 C0,4.48 4.48,0 10,0 Z M10,19.2 C15.08,19.2 19.2,15.08 19.2,10 C19.2,4.92 15.08,0.8 10,0.8 C4.92,0.8 0.8,4.92 0.8,10 C0.8,15.08 4.92,19.2 10,19.2 Z" id="Combined-Shape"></path>
                    </g>
                </g>
            </g>
        </g>
    </g>
</svg>