<?xml version="1.0" encoding="UTF-8"?>
<svg width="20px" height="20px" viewBox="0 0 20 20" version="1.1" xmlns="http://www.w3.org/2000/svg" xmlns:xlink="http://www.w3.org/1999/xlink">
    <!-- Generator: sketchtool 54.1 (76490) - https://sketchapp.com -->
    <title>D2D94A76-241F-496B-AEEB-F24B7ACA1642</title>
    <desc>Created with sketchtool.</desc>
    <g id="Icons-Neu-für-FE" stroke="none" stroke-width="1" fill-rule="evenodd">
        <g id="Siedle-Icons_Update" transform="translate(-261.000000, -1084.000000)">
            <g id="icon-edited/siedle_icon-edited_times" transform="translate(261.000000, 1084.000000)">
                <g id="siedle-icons_forms_times">
                    <path d="M10.7368421,10 L19.8421053,0.894736842 C20.0526316,0.684210526 20.0526316,0.368421053 19.8421053,0.157894737 C19.6315789,-0.0526315789 19.3157895,-0.0526315789 19.1052632,0.157894737 L10,9.26315789 L0.894736842,0.157894737 C0.684210526,-0.0526315789 0.368421053,-0.0526315789 0.157894737,0.157894737 C-0.0526315789,0.368421053 -0.0526315789,0.684210526 0.157894737,0.894736842 L9.26315789,10 L0.157894737,19.1052632 C-0.0526315789,19.3157895 -0.0526315789,19.6315789 0.157894737,19.8421053 C0.263157895,19.9473684 0.421052632,20 0.526315789,20 C0.631578947,20 0.789473684,19.9473684 0.894736842,19.8421053 L10,10.7368421 L19.1052632,19.8421053 C19.2105263,19.9473684 19.3684211,20 19.4736842,20 C19.5789474,20 19.7368421,19.9473684 19.8421053,19.8421053 C20.0526316,19.6315789 20.0526316,19.3157895 19.8421053,19.1052632 L10.7368421,10 Z" id="Path"></path>
                </g>
            </g>
        </g>
    </g>
</svg>