<svg class="icon" version="1.1" xmlns="http://www.w3.org/2000/svg" width="32" height="32" viewBox="0 0 32 32">
<path d="M31 0.25c0.45 0 0.75 0.3 0.75 0.75v30c0 0.45-0.3 0.75-0.75 0.75h-30c-0.45 0-0.75-0.3-0.75-0.75v-30c0-0.45 0.3-0.75 0.75-0.75h8.325c0.45 0 0.75 0.3 0.75 0.75s-0.3 0.75-0.75 0.75h-7.575v28.5h28.5v-28.5h-7.575c-0.45 0-0.75-0.3-0.75-0.75s0.3-0.75 0.75-0.75h8.325zM9.025 13.975l6.225 6.225v-19.2c0-0.45 0.3-0.75 0.75-0.75s0.75 0.3 0.75 0.75v19.2l6.225-6.225c0.3-0.3 0.75-0.3 1.050 0s0.3 0.75 0 1.050l-8.025 8.025-8.025-8.025c-0.3-0.3-0.3-0.75 0-1.050s0.75-0.3 1.050 0z"></path>
</svg>
