<?xml version="1.0" encoding="UTF-8"?>
<svg clas="icon" width="5px" height="20px" viewBox="0 0 5 20" version="1.1" xmlns="http://www.w3.org/2000/svg" xmlns:xlink="http://www.w3.org/1999/xlink">
    <!-- Generator: sketchtool 54.1 (76490) - https://sketchapp.com -->
    <title>0EF088B5-2F60-46DD-B287-C9568D4D9659</title>
    <desc>Created with sketchtool.</desc>
    <g id="Icons-Neu-für-FE" stroke="none" stroke-width="1" fill="none" fill-rule="evenodd">
        <g id="Siedle-Icons_Update" transform="translate(-93.000000, -2234.000000)" fill="#999999">
            <g id="SOFT-App-Header" transform="translate(93.000000, 2181.000000)">
                <g id="icon-edited/siedle_icon-edited_ellipsis-v" transform="translate(0.000000, 53.000000)">
                    <path d="M2.5,7.5 C3.875,7.5 5,8.625 5,10 C5,11.375 3.875,12.5 2.5,12.5 C1.125,12.5 0,11.375 0,10 C0,8.625 1.125,7.5 2.5,7.5 Z M2.5,11.5 C3.325,11.5 4,10.825 4,10 C4,9.175 3.325,8.5 2.5,8.5 C1.675,8.5 1,9.175 1,10 C1,10.825 1.675,11.5 2.5,11.5 Z M2.5,15 C3.875,15 5,16.125 5,17.5 C5,18.875 3.875,20 2.5,20 C1.125,20 0,18.875 0,17.5 C0,16.125 1.125,15 2.5,15 Z M2.5,19 C3.325,19 4,18.325 4,17.5 C4,16.675 3.325,16 2.5,16 C1.675,16 1,16.675 1,17.5 C1,18.325 1.675,19 2.5,19 Z M2.5,5 C1.125,5 0,3.875 0,2.5 C0,1.125 1.125,0 2.5,0 C3.875,0 5,1.125 5,2.5 C5,3.875 3.875,5 2.5,5 Z M2.5,1 C1.675,1 1,1.675 1,2.5 C1,3.325 1.675,4 2.5,4 C3.325,4 4,3.325 4,2.5 C4,1.675 3.325,1 2.5,1 Z" id="Combined-Shape"></path>
                </g>
            </g>
        </g>
    </g>
</svg>