<?xml version="1.0" encoding="UTF-8"?>
<svg class="icon" width="24px" height="24px" viewBox="0 0 24 24" version="1.1" xmlns="http://www.w3.org/2000/svg" xmlns:xlink="http://www.w3.org/1999/xlink">
    <!-- Generator: sketchtool 54.1 (76490) - https://sketchapp.com -->
    <title>7365D73E-B385-4C8B-AFE4-A0246146BD6B</title>
    <desc>Created with sketchtool.</desc>
    <g id="Icons-Neu-für-FE" stroke="none" stroke-width="1" fill="none" fill-rule="evenodd">
        <g id="Siedle-Icons_Update" transform="translate(-96.000000, -1831.000000)">
            <g id="Dropdown" transform="translate(93.000000, 1775.000000)">
                <g id="icon/siedle_icon_exclamation-circle" transform="translate(0.000000, 53.000000)">
                    <g id="siedle-icons_forms_-exclamation-circle">
                        <g id="Group" transform="translate(3.281250, 3.281250)" fill="#FF2941">
                            <path d="M11.71875,0 C18.1875,0 23.4375,5.25 23.4375,11.71875 C23.4375,18.1875 18.1875,23.4375 11.71875,23.4375 C5.25,23.4375 0,18.1875 0,11.71875 C0,5.25 5.25,0 11.71875,0 Z M11.71875,22.5 C17.671875,22.5 22.5,17.671875 22.5,11.71875 C22.5,5.765625 17.671875,0.9375 11.71875,0.9375 C5.765625,0.9375 0.9375,5.765625 0.9375,11.71875 C0.9375,17.671875 5.765625,22.5 11.71875,22.5 Z M12.234375,14.4374996 L11.25,14.4374996 L11.015625,11.5781248 L11.015625,5.859375 L12.421875,5.859375 L12.421875,11.5781248 L12.234375,14.4374996 Z M10.9687498,15.234375 L12.4687498,15.234375 L12.4687498,17.34375 L10.9687498,17.34375 L10.9687498,15.234375 Z" id="Combined-Shape"></path>
                        </g>
                        <rect id="Rectangle" x="0" y="0" width="30" height="30"></rect>
                    </g>
                </g>
            </g>
        </g>
    </g>
</svg>