<svg class="icon" version="1.1" xmlns="http://www.w3.org/2000/svg" width="35" height="32" viewBox="0 0 35 32">
<path d="M31.241 10.207h-2c-0.828-5.724-5.724-10.069-11.586-10.069-5.655 0-10.414 4-11.448 9.379h-2.069c-2 0-3.655 1.724-3.655 3.931v4.897c0 2.138 1.655 3.931 3.655 3.931h2.483c0.414 0 0.69-0.276 0.69-0.69v-9.724c0-5.724 4.621-10.345 10.345-10.345s10.345 4.621 10.345 10.345v6.897c0 1.793-0.483 3.586-1.379 5.172-1.034 1.724-2.552 3.172-4.345 4.069-0.414-0.966-1.448-1.655-2.552-1.655h-4.138c-1.517 0-2.759 1.241-2.759 2.759s1.241 2.759 2.759 2.759h4.138c1.379 0 2.552-1.034 2.69-2.414 2.207-1.034 4.138-2.69 5.379-4.828 0.345-0.552 0.621-1.172 0.828-1.724 0 0 0.069 0 0.069 0h2.552c2 0 3.655-1.724 3.655-3.931v-4.897c0-2.138-1.655-3.862-3.655-3.862zM1.793 18.276v-4.897c0-1.379 1.034-2.552 2.276-2.552h1.862c0 0.345-0.069 0.69-0.069 0.966v8.966h-1.862c-1.172 0.069-2.207-1.034-2.207-2.483zM19.724 30.483h-4.138c-0.759 0-1.379-0.621-1.379-1.379s0.621-1.379 1.379-1.379h4.138c0.759 0 1.379 0.621 1.379 1.379s-0.621 1.379-1.379 1.379zM33.517 18.966c0 1.379-1.034 2.552-2.276 2.552h-2.138c0.207-0.897 0.345-1.793 0.345-2.759v-6.897c0-0.138 0-0.207 0-0.276h1.862c1.241 0 2.276 1.103 2.276 2.552v4.828h-0.069z"></path>
</svg>
