<?xml version="1.0" encoding="UTF-8"?>
<svg class="icon" width="24px" height="24px" viewBox="0 0 24 24" version="1.1" xmlns="http://www.w3.org/2000/svg" xmlns:xlink="http://www.w3.org/1999/xlink">
    <!-- Generator: sketchtool 54.1 (76490) - https://sketchapp.com -->
    <title>3B356572-2218-4242-8DC9-ED6B102D7F33</title>
    <desc>Created with sketchtool.</desc>
    <g id="Icons-Neu-für-FE" stroke="none" stroke-width="1" fill="none" fill-rule="evenodd">
        <g id="Siedle-Icons_Update" transform="translate(-96.000000, -1851.000000)">
            <g id="SOFT-App-Header" transform="translate(0.000000, 1775.000000)">
                <g id="icon/siedle_icon_info" transform="translate(93.000000, 73.000000)">
                    <g id="siedle-icons_forms_info">
                        <rect id="Rectangle" x="0" y="0" width="30" height="30"></rect>
                        <g id="Group" transform="translate(3.281250, 3.281250)" fill="#FFFFFF">
                            <path d="M11.71875,0 C18.1875,0 23.4375,5.25 23.4375,11.71875 C23.4375,18.1875 18.1875,23.4375 11.71875,23.4375 C5.25,23.4375 0,18.1875 0,11.71875 C0,5.25 5.25,0 11.71875,0 Z M11.71875,22.5 C17.671875,22.5 22.5,17.671875 22.5,11.71875 C22.5,5.765625 17.671875,0.9375 11.71875,0.9375 C5.765625,0.9375 0.9375,5.765625 0.9375,11.71875 C0.9375,17.671875 5.765625,22.5 11.71875,22.5 Z M11.015625,9.32812482 L12.421875,9.32812482 L12.421875,17.34375 L11.015625,17.34375 L11.015625,9.32812482 Z M11.015625,5.859375 L12.421875,5.859375 L12.421875,7.64062498 L11.015625,7.64062498 L11.015625,5.859375 Z" id="Combined-Shape"></path>
                        </g>
                    </g>
                </g>
            </g>
        </g>
    </g>
</svg>