<?xml version="1.0" encoding="UTF-8"?>
<svg class="icon" width="20px" height="20px" viewBox="0 0 20 20" version="1.1" xmlns="http://www.w3.org/2000/svg" xmlns:xlink="http://www.w3.org/1999/xlink">
    <!-- Generator: sketchtool 54.1 (76490) - https://sketchapp.com -->
    <title>E45492E9-D99D-4731-B81C-74A09F77EA72</title>
    <desc>Created with sketchtool.</desc>
    <g id="Icons-Neu-für-FE" stroke="none" stroke-width="1" fill-rule="evenodd">
        <g id="Siedle-Icons_Update" transform="translate(-142.000000, -1084.000000)">
            <g id="icon-edited/siedle_icon-edited_search" transform="translate(142.000000, 1084.000000)">
                <path d="M19.8571429,19.1904762 L14.1428571,13.4761905 C14.1428571,13.4761905 14.1428571,13.4761905 14.1428571,13.4761905 C15.4285714,12.047619 16.1904762,10.1904762 16.1904762,8.0952381 C16.1904762,3.61904762 12.5714286,0 8.0952381,0 C3.61904762,0 0,3.61904762 0,8.0952381 C0,12.5714286 3.61904762,16.1904762 8.0952381,16.1904762 C10.1428571,16.1904762 12.047619,15.4285714 13.4761905,14.1428571 C13.4761905,14.1428571 13.4761905,14.1428571 13.4761905,14.1428571 L19.1904762,19.8571429 C19.2857143,19.952381 19.4285714,20 19.5238095,20 C19.6190476,20 19.7619048,19.952381 19.8571429,19.8571429 C20.047619,19.6666667 20.047619,19.3809524 19.8571429,19.1904762 Z M8.0952381,15.2380952 C4.14285714,15.2380952 0.952380952,12.047619 0.952380952,8.0952381 C0.952380952,4.14285714 4.14285714,0.952380952 8.0952381,0.952380952 C12.047619,0.952380952 15.2380952,4.14285714 15.2380952,8.0952381 C15.2380952,12.047619 12.047619,15.2380952 8.0952381,15.2380952 Z" id="Shape"></path>
            </g>
        </g>
    </g>
</svg>