<svg class="icon" version="1.1" xmlns="http://www.w3.org/2000/svg" width="29" height="32" viewBox="0 0 29 32">
<path d="M28.104 22c0.188 0.063 0.313 0.313 0.313 0.5v7.875c0 0.375-0.25 0.625-0.625 0.625h-26.25c-0.375 0-0.625-0.25-0.625-0.625v-7.875c0-0.188 0.125-0.375 0.313-0.5 2.813-1.875 7.438-4.063 13.438-4.063 6.25 0 11.125 2.5 13.438 4.063zM27.167 29.75v-6.875c-2.313-1.5-6.813-3.688-12.5-3.688-5.5 0-9.813 1.938-12.5 3.625v6.938h25zM14.667 15.375c-3.938 0-7.188-3.25-7.188-7.188s3.25-7.188 7.188-7.188 7.188 3.25 7.188 7.188-3.25 7.188-7.188 7.188zM14.667 2.25c-3.25 0-5.938 2.688-5.938 5.938s2.688 5.938 5.938 5.938 5.938-2.688 5.938-5.938-2.688-5.938-5.938-5.938z"></path>
</svg>
